<?xml version="1.0" encoding="UTF-8" standalone="no"?>
<!DOCTYPE svg PUBLIC "-//W3C//DTD SVG 1.1//EN"
 "http://www.w3.org/Graphics/SVG/1.1/DTD/svg11.dtd">
<!-- Generated by graphviz version 9.0.0 (20230911.1827)
 -->
<!-- Pages: 1 -->
<svg width="368pt" height="260pt"
 viewBox="0.00 0.00 368.00 260.00" xmlns="http://www.w3.org/2000/svg" xmlns:xlink="http://www.w3.org/1999/xlink">
<g id="graph0" class="graph" transform="scale(1 1) rotate(0) translate(4 256)">
<polygon fill="white" stroke="none" points="-4,4 -4,-256 364,-256 364,4 -4,4"/>
<!-- NOX4 -->
<g id="node1" class="node">
<title>NOX4</title>
<ellipse fill="none" stroke="black" cx="35.1" cy="-18" rx="35.1" ry="18"/>
<text text-anchor="middle" x="35.1" y="-12.57" font-family="Times New Roman,serif" font-size="14.00">NOX4</text>
</g>
<!-- SP3 -->
<g id="node2" class="node">
<title>SP3</title>
<ellipse fill="none" stroke="black" cx="89.1" cy="-234" rx="27" ry="18"/>
<text text-anchor="middle" x="89.1" y="-228.57" font-family="Times New Roman,serif" font-size="14.00">SP3</text>
</g>
<!-- SP3&#45;&gt;NOX4 -->
<g id="edge2" class="edge">
<title>SP3&#45;&gt;NOX4</title>
<path fill="none" stroke="green" d="M75.93,-217.76C57.63,-195.45 25.36,-151.78 13.1,-108 7.33,-87.41 13.67,-63.92 21.01,-46.24"/>
<polygon fill="green" stroke="green" points="24.17,-47.74 25.1,-37.19 17.79,-44.86 24.17,-47.74"/>
</g>
<!-- NFKB1 -->
<g id="node7" class="node">
<title>NFKB1</title>
<ellipse fill="none" stroke="black" cx="152.1" cy="-90" rx="39.59" ry="18"/>
<text text-anchor="middle" x="152.1" y="-84.58" font-family="Times New Roman,serif" font-size="14.00">NFKB1</text>
</g>
<!-- SP3&#45;&gt;NFKB1 -->
<g id="edge1" class="edge">
<title>SP3&#45;&gt;NFKB1</title>
<path fill="none" stroke="green" d="M90.31,-215.81C92.17,-197.28 96.79,-167.31 108.1,-144 113.13,-133.62 120.62,-123.53 128,-115"/>
<polygon fill="green" stroke="green" points="130.38,-117.58 134.52,-107.83 125.2,-112.87 130.38,-117.58"/>
</g>
<!-- RELA -->
<g id="node8" class="node">
<title>RELA</title>
<ellipse fill="none" stroke="black" cx="152.1" cy="-162" rx="34.6" ry="18"/>
<text text-anchor="middle" x="152.1" y="-156.57" font-family="Times New Roman,serif" font-size="14.00">RELA</text>
</g>
<!-- SP3&#45;&gt;RELA -->
<g id="edge3" class="edge">
<title>SP3&#45;&gt;RELA</title>
<path fill="none" stroke="green" d="M102.46,-218.15C110.58,-209.12 121.15,-197.38 130.45,-187.05"/>
<polygon fill="green" stroke="green" points="132.78,-189.7 136.87,-179.92 127.58,-185.01 132.78,-189.7"/>
</g>
<!-- STAT1 -->
<g id="node3" class="node">
<title>STAT1</title>
<ellipse fill="none" stroke="black" cx="287.1" cy="-90" rx="39.09" ry="18"/>
<text text-anchor="middle" x="287.1" y="-84.58" font-family="Times New Roman,serif" font-size="14.00">STAT1</text>
</g>
<!-- NOX5 -->
<g id="node6" class="node">
<title>NOX5</title>
<ellipse fill="none" stroke="black" cx="287.1" cy="-18" rx="35.1" ry="18"/>
<text text-anchor="middle" x="287.1" y="-12.57" font-family="Times New Roman,serif" font-size="14.00">NOX5</text>
</g>
<!-- STAT1&#45;&gt;NOX5 -->
<g id="edge4" class="edge">
<title>STAT1&#45;&gt;NOX5</title>
<path fill="none" stroke="green" d="M287.1,-71.7C287.1,-64.41 287.1,-55.73 287.1,-47.54"/>
<polygon fill="green" stroke="green" points="290.6,-47.62 287.1,-37.62 283.6,-47.62 290.6,-47.62"/>
</g>
<!-- JUN -->
<g id="node4" class="node">
<title>JUN</title>
<ellipse fill="none" stroke="black" cx="215.1" cy="-234" rx="27.11" ry="18"/>
<text text-anchor="middle" x="215.1" y="-228.57" font-family="Times New Roman,serif" font-size="14.00">JUN</text>
</g>
<!-- JUN&#45;&gt;JUN -->
<g id="edge5" class="edge">
<title>JUN&#45;&gt;JUN</title>
<path fill="none" stroke="green" d="M235.04,-246.43C247.87,-249.68 260.21,-245.53 260.21,-234 260.21,-225.98 254.24,-221.54 246.29,-220.66"/>
<polygon fill="green" stroke="green" points="246.24,-217.15 236.55,-221.45 246.8,-224.13 246.24,-217.15"/>
</g>
<!-- JUN&#45;&gt;NOX5 -->
<g id="edge6" class="edge">
<title>JUN&#45;&gt;NOX5</title>
<path fill="none" stroke="green" d="M242.32,-231.41C275.12,-227.87 328.97,-216.47 354.1,-180 362.89,-167.24 361.49,-94.8 350.1,-72 343.29,-58.38 331.24,-46.92 319.49,-38.18"/>
<polygon fill="green" stroke="green" points="321.69,-35.44 311.48,-32.62 317.7,-41.2 321.69,-35.44"/>
</g>
<!-- JUN&#45;&gt;NFKB1 -->
<g id="edge7" class="edge">
<title>JUN&#45;&gt;NFKB1</title>
<path fill="none" stroke="green" d="M213.88,-215.81C212.02,-197.28 207.4,-167.31 196.1,-144 191.06,-133.62 183.57,-123.53 176.19,-115"/>
<polygon fill="green" stroke="green" points="178.99,-112.87 169.67,-107.83 173.81,-117.58 178.99,-112.87"/>
</g>
<!-- JUN&#45;&gt;RELA -->
<g id="edge8" class="edge">
<title>JUN&#45;&gt;RELA</title>
<path fill="none" stroke="green" d="M201.74,-218.15C193.61,-209.12 183.04,-197.38 173.74,-187.05"/>
<polygon fill="green" stroke="green" points="176.62,-185.01 167.33,-179.92 171.41,-189.7 176.62,-185.01"/>
</g>
<!-- STAT3 -->
<g id="node5" class="node">
<title>STAT3</title>
<ellipse fill="none" stroke="black" cx="306.1" cy="-162" rx="39.09" ry="18"/>
<text text-anchor="middle" x="306.1" y="-156.57" font-family="Times New Roman,serif" font-size="14.00">STAT3</text>
</g>
<!-- STAT3&#45;&gt;STAT1 -->
<g id="edge10" class="edge">
<title>STAT3&#45;&gt;STAT1</title>
<path fill="none" stroke="green" d="M301.4,-143.7C299.37,-136.24 296.95,-127.32 294.69,-118.97"/>
<polygon fill="green" stroke="green" points="298.13,-118.3 292.14,-109.57 291.38,-120.13 298.13,-118.3"/>
</g>
<!-- STAT3&#45;&gt;NOX5 -->
<g id="edge9" class="edge">
<title>STAT3&#45;&gt;NOX5</title>
<path fill="none" stroke="green" d="M318.35,-144.41C330.09,-126.4 344.68,-96.87 335.1,-72 330.68,-60.53 322.5,-50.01 314.12,-41.41"/>
<polygon fill="green" stroke="green" points="316.57,-38.91 306.92,-34.54 311.74,-43.97 316.57,-38.91"/>
</g>
<!-- NFKB1&#45;&gt;NOX4 -->
<g id="edge11" class="edge">
<title>NFKB1&#45;&gt;NOX4</title>
<path fill="none" stroke="green" d="M128.7,-75C110.98,-64.4 86.45,-49.72 66.94,-38.05"/>
<polygon fill="green" stroke="green" points="68.94,-35.17 58.56,-33.04 65.35,-41.18 68.94,-35.17"/>
</g>
<!-- NFKB1&#45;&gt;NOX5 -->
<g id="edge12" class="edge">
<title>NFKB1&#45;&gt;NOX5</title>
<path fill="none" stroke="green" d="M177.49,-75.83C198.82,-64.77 229.48,-48.87 252.96,-36.7"/>
<polygon fill="green" stroke="green" points="254.57,-39.81 261.83,-32.1 251.34,-33.6 254.57,-39.81"/>
</g>
<!-- RELA&#45;&gt;NOX4 -->
<g id="edge14" class="edge">
<title>RELA&#45;&gt;NOX4</title>
<path fill="none" stroke="green" d="M118.3,-157.34C87.91,-152.05 44.94,-139.2 24.1,-108 12.08,-90.01 16.35,-65.33 22.76,-46.52"/>
<polygon fill="green" stroke="green" points="25.96,-47.96 26.25,-37.37 19.42,-45.46 25.96,-47.96"/>
</g>
<!-- RELA&#45;&gt;NOX5 -->
<g id="edge15" class="edge">
<title>RELA&#45;&gt;NOX5</title>
<path fill="none" stroke="green" d="M166.8,-145.53C190.44,-120.67 237.03,-71.66 264.78,-42.47"/>
<polygon fill="green" stroke="green" points="267.01,-45.2 271.37,-35.54 261.94,-40.38 267.01,-45.2"/>
</g>
<!-- RELA&#45;&gt;NFKB1 -->
<g id="edge13" class="edge">
<title>RELA&#45;&gt;NFKB1</title>
<path fill="none" stroke="green" d="M152.1,-143.7C152.1,-136.41 152.1,-127.73 152.1,-119.54"/>
<polygon fill="green" stroke="green" points="155.6,-119.62 152.1,-109.62 148.6,-119.62 155.6,-119.62"/>
</g>
<!-- E2F1 -->
<g id="node9" class="node">
<title>E2F1</title>
<ellipse fill="none" stroke="black" cx="64.1" cy="-90" rx="30.61" ry="18"/>
<text text-anchor="middle" x="64.1" y="-84.58" font-family="Times New Roman,serif" font-size="14.00">E2F1</text>
</g>
<!-- E2F1&#45;&gt;NOX4 -->
<g id="edge16" class="edge">
<title>E2F1&#45;&gt;NOX4</title>
<path fill="none" stroke="green" d="M57.08,-72.05C53.87,-64.32 49.99,-54.96 46.39,-46.27"/>
<polygon fill="green" stroke="green" points="49.69,-45.09 42.63,-37.19 43.22,-47.77 49.69,-45.09"/>
</g>
</g>
</svg>
