<?xml version="1.0" encoding="UTF-8" standalone="no"?>
<!DOCTYPE svg PUBLIC "-//W3C//DTD SVG 1.1//EN"
 "http://www.w3.org/Graphics/SVG/1.1/DTD/svg11.dtd">
<!-- Generated by graphviz version 9.0.0 (20230911.1827)
 -->
<!-- Pages: 1 -->
<svg width="448pt" height="476pt"
 viewBox="0.00 0.00 448.21 476.00" xmlns="http://www.w3.org/2000/svg" xmlns:xlink="http://www.w3.org/1999/xlink">
<g id="graph0" class="graph" transform="scale(1 1) rotate(0) translate(4 472)">
<polygon fill="white" stroke="none" points="-4,4 -4,-472 444.21,-472 444.21,4 -4,4"/>
<!-- PRKG1 -->
<g id="node1" class="node">
<title>PRKG1</title>
<ellipse fill="none" stroke="black" cx="197.1" cy="-450" rx="40.58" ry="18"/>
<text text-anchor="middle" x="197.1" y="-444.57" font-family="Times New Roman,serif" font-size="14.00">PRKG1</text>
</g>
<!-- MAPK14 -->
<g id="node2" class="node">
<title>MAPK14</title>
<ellipse fill="none" stroke="black" cx="197.1" cy="-378" rx="46.07" ry="18"/>
<text text-anchor="middle" x="197.1" y="-372.57" font-family="Times New Roman,serif" font-size="14.00">MAPK14</text>
</g>
<!-- PRKG1&#45;&gt;MAPK14 -->
<g id="edge1" class="edge">
<title>PRKG1&#45;&gt;MAPK14</title>
<path fill="none" stroke="purple" d="M197.1,-431.83C197.1,-424.55 197.1,-415.98 197.1,-407.83"/>
<polygon fill="purple" stroke="purple" points="200.6,-407.93 197.1,-397.93 193.6,-407.93 200.6,-407.93"/>
</g>
<!-- IRF4 -->
<g id="node3" class="node">
<title>IRF4</title>
<ellipse fill="none" stroke="black" cx="197.1" cy="-306" rx="30.11" ry="18"/>
<text text-anchor="middle" x="197.1" y="-300.57" font-family="Times New Roman,serif" font-size="14.00">IRF4</text>
</g>
<!-- MAPK14&#45;&gt;IRF4 -->
<g id="edge2" class="edge">
<title>MAPK14&#45;&gt;IRF4</title>
<path fill="none" stroke="green" d="M197.1,-359.83C197.1,-352.55 197.1,-343.98 197.1,-335.83"/>
<polygon fill="green" stroke="green" points="200.6,-335.93 197.1,-325.93 193.6,-335.93 200.6,-335.93"/>
</g>
<!-- BCL6 -->
<g id="node4" class="node">
<title>BCL6</title>
<ellipse fill="none" stroke="black" cx="125.1" cy="-234" rx="33.1" ry="18"/>
<text text-anchor="middle" x="125.1" y="-228.57" font-family="Times New Roman,serif" font-size="14.00">BCL6</text>
</g>
<!-- IRF4&#45;&gt;BCL6 -->
<g id="edge3" class="edge">
<title>IRF4&#45;&gt;BCL6</title>
<path fill="none" stroke="red" d="M187.38,-288.63C179.12,-278.58 167,-265.94 155.61,-255.31"/>
<polygon fill="red" stroke="red" points="158.01,-252.76 148.24,-248.66 153.32,-257.96 158.01,-252.76"/>
</g>
<!-- BCL6&#45;&gt;IRF4 -->
<g id="edge5" class="edge">
<title>BCL6&#45;&gt;IRF4</title>
<path fill="none" stroke="red" d="M134.81,-251.37C143.27,-261.66 155.78,-274.67 167.4,-285.45"/>
<polygon fill="red" stroke="red" points="164.74,-287.76 174.52,-291.83 169.41,-282.55 164.74,-287.76"/>
</g>
<!-- BCL6&#45;&gt;BCL6 -->
<g id="edge4" class="edge">
<title>BCL6&#45;&gt;BCL6</title>
<path fill="none" stroke="red" d="M156.28,-240.75C167.28,-240.85 176.2,-238.61 176.2,-234 176.2,-231.12 172.71,-229.16 167.41,-228.13"/>
<polygon fill="red" stroke="red" points="168.03,-224.66 157.79,-227.37 167.49,-231.64 168.03,-224.66"/>
</g>
<!-- NFKB1 -->
<g id="node5" class="node">
<title>NFKB1</title>
<ellipse fill="none" stroke="black" cx="269.1" cy="-162" rx="39.59" ry="18"/>
<text text-anchor="middle" x="269.1" y="-156.57" font-family="Times New Roman,serif" font-size="14.00">NFKB1</text>
</g>
<!-- BCL6&#45;&gt;NFKB1 -->
<g id="edge6" class="edge">
<title>BCL6&#45;&gt;NFKB1</title>
<path fill="none" stroke="red" d="M149.85,-221.62C172.4,-210.35 206.01,-193.54 231.8,-180.65"/>
<polygon fill="red" stroke="red" points="233.24,-183.84 240.62,-176.24 230.11,-177.58 233.24,-183.84"/>
</g>
<!-- NFKB1&#45;&gt;IRF4 -->
<g id="edge9" class="edge">
<title>NFKB1&#45;&gt;IRF4</title>
<path fill="none" stroke="green" d="M260.12,-179.95C247.75,-204.68 225.36,-249.48 210.86,-278.47"/>
<polygon fill="green" stroke="green" points="207.75,-276.86 206.41,-287.37 214.01,-279.99 207.75,-276.86"/>
</g>
<!-- NOX4 -->
<g id="node6" class="node">
<title>NOX4</title>
<ellipse fill="none" stroke="black" cx="35.1" cy="-90" rx="35.1" ry="18"/>
<text text-anchor="middle" x="35.1" y="-84.58" font-family="Times New Roman,serif" font-size="14.00">NOX4</text>
</g>
<!-- NFKB1&#45;&gt;NOX4 -->
<g id="edge10" class="edge">
<title>NFKB1&#45;&gt;NOX4</title>
<path fill="none" stroke="green" d="M236.07,-151.84C194.26,-138.97 122.21,-116.8 76.69,-102.8"/>
<polygon fill="green" stroke="green" points="77.76,-99.47 67.17,-99.87 75.7,-106.16 77.76,-99.47"/>
</g>
<!-- IRF1 -->
<g id="node7" class="node">
<title>IRF1</title>
<ellipse fill="none" stroke="black" cx="125.1" cy="-90" rx="30.11" ry="18"/>
<text text-anchor="middle" x="125.1" y="-84.58" font-family="Times New Roman,serif" font-size="14.00">IRF1</text>
</g>
<!-- NFKB1&#45;&gt;IRF1 -->
<g id="edge8" class="edge">
<title>NFKB1&#45;&gt;IRF1</title>
<path fill="none" stroke="green" d="M242.01,-148.46C218.34,-136.62 183.9,-119.4 158.52,-106.71"/>
<polygon fill="green" stroke="green" points="160.12,-103.6 149.61,-102.26 156.99,-109.86 160.12,-103.6"/>
</g>
<!-- AR -->
<g id="node8" class="node">
<title>AR</title>
<ellipse fill="none" stroke="black" cx="276.3" cy="-90" rx="27" ry="18"/>
<text text-anchor="middle" x="276.3" y="-84.58" font-family="Times New Roman,serif" font-size="14.00">AR</text>
</g>
<!-- NFKB1&#45;&gt;AR -->
<g id="edge7" class="edge">
<title>NFKB1&#45;&gt;AR</title>
<path fill="none" stroke="red" d="M276.91,-144.05C278.38,-136.54 279.49,-127.6 280.03,-119.18"/>
<polygon fill="red" stroke="red" points="283.52,-119.45 280.35,-109.34 276.53,-119.22 283.52,-119.45"/>
</g>
<!-- NOX5 -->
<g id="node9" class="node">
<title>NOX5</title>
<ellipse fill="none" stroke="black" cx="395.1" cy="-90" rx="35.1" ry="18"/>
<text text-anchor="middle" x="395.1" y="-84.58" font-family="Times New Roman,serif" font-size="14.00">NOX5</text>
</g>
<!-- NFKB1&#45;&gt;NOX5 -->
<g id="edge11" class="edge">
<title>NFKB1&#45;&gt;NOX5</title>
<path fill="none" stroke="green" d="M293.99,-147.78C313.34,-136.72 340.38,-121.27 361.63,-109.13"/>
<polygon fill="green" stroke="green" points="363.27,-112.22 370.22,-104.22 359.8,-106.14 363.27,-112.22"/>
</g>
<!-- E2F1 -->
<g id="node10" class="node">
<title>E2F1</title>
<ellipse fill="none" stroke="black" cx="89.1" cy="-18" rx="30.61" ry="18"/>
<text text-anchor="middle" x="89.1" y="-12.57" font-family="Times New Roman,serif" font-size="14.00">E2F1</text>
</g>
<!-- IRF1&#45;&gt;E2F1 -->
<g id="edge12" class="edge">
<title>IRF1&#45;&gt;E2F1</title>
<path fill="none" stroke="red" d="M116.38,-72.57C112.34,-64.49 107.45,-54.7 102.92,-45.65"/>
<polygon fill="red" stroke="red" points="106.13,-44.25 98.53,-36.87 99.87,-47.38 106.13,-44.25"/>
</g>
<!-- AR&#45;&gt;NFKB1 -->
<g id="edge14" class="edge">
<title>AR&#45;&gt;NFKB1</title>
<path fill="none" stroke="red" d="M268.56,-107.58C267.07,-115.04 265.95,-123.94 265.39,-132.36"/>
<polygon fill="red" stroke="red" points="261.9,-132.12 265.04,-142.24 268.89,-132.37 261.9,-132.12"/>
</g>
<!-- RELA -->
<g id="node11" class="node">
<title>RELA</title>
<ellipse fill="none" stroke="black" cx="197.1" cy="-18" rx="34.6" ry="18"/>
<text text-anchor="middle" x="197.1" y="-12.57" font-family="Times New Roman,serif" font-size="14.00">RELA</text>
</g>
<!-- AR&#45;&gt;RELA -->
<g id="edge15" class="edge">
<title>AR&#45;&gt;RELA</title>
<path fill="none" stroke="red" d="M265.71,-73.19C256.36,-62.85 242.4,-49.63 229.48,-38.67"/>
<polygon fill="red" stroke="red" points="231.89,-36.12 221.94,-32.48 227.44,-41.53 231.89,-36.12"/>
</g>
<!-- JUN -->
<g id="node12" class="node">
<title>JUN</title>
<ellipse fill="none" stroke="black" cx="395.1" cy="-18" rx="27.11" ry="18"/>
<text text-anchor="middle" x="395.1" y="-12.57" font-family="Times New Roman,serif" font-size="14.00">JUN</text>
</g>
<!-- AR&#45;&gt;JUN -->
<g id="edge13" class="edge">
<title>AR&#45;&gt;JUN</title>
<path fill="none" stroke="green" d="M300.58,-81.53C321,-71.15 350,-53.75 370.51,-39.69"/>
<polygon fill="green" stroke="green" points="372.45,-42.6 378.58,-33.97 368.4,-36.89 372.45,-42.6"/>
</g>
<!-- E2F1&#45;&gt;NOX4 -->
<g id="edge17" class="edge">
<title>E2F1&#45;&gt;NOX4</title>
<path fill="none" stroke="green" d="M76.57,-34.7C70.06,-43.39 61.94,-54.21 54.62,-63.96"/>
<polygon fill="green" stroke="green" points="52.04,-61.58 48.84,-71.68 57.64,-65.78 52.04,-61.58"/>
</g>
<!-- E2F1&#45;&gt;AR -->
<g id="edge16" class="edge">
<title>E2F1&#45;&gt;AR</title>
<path fill="none" stroke="green" d="M115.13,-28.01C148.17,-40.72 205.29,-62.69 241.9,-76.77"/>
<polygon fill="green" stroke="green" points="240.55,-80 251.14,-80.33 243.07,-73.47 240.55,-80"/>
</g>
<!-- RELA&#45;&gt;IRF4 -->
<g id="edge20" class="edge">
<title>RELA&#45;&gt;IRF4</title>
<path fill="none" stroke="green" d="M197.1,-36.45C197.1,-85.12 197.1,-217.27 197.1,-276.54"/>
<polygon fill="green" stroke="green" points="193.6,-276.19 197.1,-286.19 200.6,-276.19 193.6,-276.19"/>
</g>
<!-- RELA&#45;&gt;NFKB1 -->
<g id="edge21" class="edge">
<title>RELA&#45;&gt;NFKB1</title>
<path fill="none" stroke="green" d="M205.92,-35.66C218.23,-60.27 240.67,-105.15 255.22,-134.25"/>
<polygon fill="green" stroke="green" points="251.92,-135.47 259.52,-142.84 258.18,-132.34 251.92,-135.47"/>
</g>
<!-- RELA&#45;&gt;NOX4 -->
<g id="edge22" class="edge">
<title>RELA&#45;&gt;NOX4</title>
<path fill="none" stroke="green" d="M170.35,-29.89C143.61,-41.77 102.29,-60.14 72.35,-73.44"/>
<polygon fill="green" stroke="green" points="70.99,-70.22 63.27,-77.48 73.83,-76.62 70.99,-70.22"/>
</g>
<!-- RELA&#45;&gt;IRF1 -->
<g id="edge19" class="edge">
<title>RELA&#45;&gt;IRF1</title>
<path fill="none" stroke="green" d="M180.76,-34.34C171.33,-43.77 159.31,-55.79 148.85,-66.25"/>
<polygon fill="green" stroke="green" points="146.54,-63.61 141.94,-73.15 151.49,-68.56 146.54,-63.61"/>
</g>
<!-- RELA&#45;&gt;AR -->
<g id="edge18" class="edge">
<title>RELA&#45;&gt;AR</title>
<path fill="none" stroke="red" d="M208.01,-35.18C217.88,-46.04 232.71,-59.97 246.05,-71.13"/>
<polygon fill="red" stroke="red" points="243.82,-73.83 253.8,-77.39 248.22,-68.38 243.82,-73.83"/>
</g>
<!-- RELA&#45;&gt;NOX5 -->
<g id="edge23" class="edge">
<title>RELA&#45;&gt;NOX5</title>
<path fill="none" stroke="green" d="M225.89,-28.47C259.96,-40.86 316.88,-61.56 355.19,-75.49"/>
<polygon fill="green" stroke="green" points="353.93,-78.76 364.53,-78.88 356.32,-72.18 353.93,-78.76"/>
</g>
<!-- JUN&#45;&gt;NFKB1 -->
<g id="edge26" class="edge">
<title>JUN&#45;&gt;NFKB1</title>
<path fill="none" stroke="green" d="M381.37,-33.68C359.75,-58.39 317.56,-106.62 291.5,-136.4"/>
<polygon fill="green" stroke="green" points="288.92,-134.03 284.97,-143.86 294.19,-138.64 288.92,-134.03"/>
</g>
<!-- JUN&#45;&gt;AR -->
<g id="edge24" class="edge">
<title>JUN&#45;&gt;AR</title>
<path fill="none" stroke="red" d="M370.81,-26.47C350.39,-36.85 321.39,-54.25 300.88,-68.31"/>
<polygon fill="red" stroke="red" points="298.95,-65.4 292.81,-74.03 302.99,-71.11 298.95,-65.4"/>
</g>
<!-- JUN&#45;&gt;NOX5 -->
<g id="edge28" class="edge">
<title>JUN&#45;&gt;NOX5</title>
<path fill="none" stroke="green" d="M395.1,-36.17C395.1,-43.45 395.1,-52.02 395.1,-60.17"/>
<polygon fill="green" stroke="green" points="391.6,-60.07 395.1,-70.07 398.6,-60.07 391.6,-60.07"/>
</g>
<!-- JUN&#45;&gt;RELA -->
<g id="edge27" class="edge">
<title>JUN&#45;&gt;RELA</title>
<path fill="none" stroke="green" d="M367.56,-18C335.5,-18 282.01,-18 243.49,-18"/>
<polygon fill="green" stroke="green" points="243.57,-14.5 233.57,-18 243.57,-21.5 243.57,-14.5"/>
</g>
<!-- JUN&#45;&gt;JUN -->
<g id="edge25" class="edge">
<title>JUN&#45;&gt;JUN</title>
<path fill="none" stroke="green" d="M420.6,-24.69C431.21,-25.15 440.21,-22.92 440.21,-18 440.21,-15 436.87,-13 431.86,-12"/>
<polygon fill="green" stroke="green" points="432.31,-8.52 422.11,-11.4 431.88,-15.51 432.31,-8.52"/>
</g>
</g>
</svg>
