<?xml version="1.0" encoding="utf-8" standalone="no"?>
<!DOCTYPE svg PUBLIC "-//W3C//DTD SVG 1.1//EN"
  "http://www.w3.org/Graphics/SVG/1.1/DTD/svg11.dtd">
<svg xmlns:xlink="http://www.w3.org/1999/xlink" width="1224pt" height="720pt" viewBox="0 0 1224 720" xmlns="http://www.w3.org/2000/svg" version="1.1">
 <metadata>
  <rdf:RDF xmlns:dc="http://purl.org/dc/elements/1.1/" xmlns:cc="http://creativecommons.org/ns#" xmlns:rdf="http://www.w3.org/1999/02/22-rdf-syntax-ns#">
   <cc:Work>
    <dc:type rdf:resource="http://purl.org/dc/dcmitype/StillImage"/>
    <dc:date>2024-05-13T10:21:29.825815</dc:date>
    <dc:format>image/svg+xml</dc:format>
    <dc:creator>
     <cc:Agent>
      <dc:title>Matplotlib v3.6.1, https://matplotlib.org/</dc:title>
     </cc:Agent>
    </dc:creator>
   </cc:Work>
  </rdf:RDF>
 </metadata>
 <defs>
  <style type="text/css">*{stroke-linejoin: round; stroke-linecap: butt}</style>
 </defs>
 <g id="figure_1">
  <g id="patch_1">
   <path d="M 0 720 
L 1224 720 
L 1224 0 
L 0 0 
z
" style="fill: #ffffff"/>
  </g>
  <g id="axes_1">
   <g id="patch_2">
    <path d="M 153 640.8 
L 1101.6 640.8 
L 1101.6 86.4 
L 153 86.4 
z
" style="fill: #ffffff"/>
   </g>
   <g id="matplotlib.axis_1">
    <g id="xtick_1">
     <g id="line2d_1">
      <defs>
       <path id="m1d5ac77ed3" d="M 0 0 
L 0 3.5 
" style="stroke: #000000; stroke-width: 0.8"/>
      </defs>
      <g>
       <use xlink:href="#m1d5ac77ed3" x="196.118182" y="640.8" style="stroke: #000000; stroke-width: 0.8"/>
      </g>
     </g>
     <g id="text_1">
      <!-- −30 -->
      <g transform="translate(177.123963 661.477188) scale(0.18 -0.18)">
       <defs>
        <path id="DejaVuSans-2212" d="M 678 2272 
L 4684 2272 
L 4684 1741 
L 678 1741 
L 678 2272 
z
" transform="scale(0.015625)"/>
        <path id="DejaVuSans-33" d="M 2597 2516 
Q 3050 2419 3304 2112 
Q 3559 1806 3559 1356 
Q 3559 666 3084 287 
Q 2609 -91 1734 -91 
Q 1441 -91 1130 -33 
Q 819 25 488 141 
L 488 750 
Q 750 597 1062 519 
Q 1375 441 1716 441 
Q 2309 441 2620 675 
Q 2931 909 2931 1356 
Q 2931 1769 2642 2001 
Q 2353 2234 1838 2234 
L 1294 2234 
L 1294 2753 
L 1863 2753 
Q 2328 2753 2575 2939 
Q 2822 3125 2822 3475 
Q 2822 3834 2567 4026 
Q 2313 4219 1838 4219 
Q 1578 4219 1281 4162 
Q 984 4106 628 3988 
L 628 4550 
Q 988 4650 1302 4700 
Q 1616 4750 1894 4750 
Q 2613 4750 3031 4423 
Q 3450 4097 3450 3541 
Q 3450 3153 3228 2886 
Q 3006 2619 2597 2516 
z
" transform="scale(0.015625)"/>
        <path id="DejaVuSans-30" d="M 2034 4250 
Q 1547 4250 1301 3770 
Q 1056 3291 1056 2328 
Q 1056 1369 1301 889 
Q 1547 409 2034 409 
Q 2525 409 2770 889 
Q 3016 1369 3016 2328 
Q 3016 3291 2770 3770 
Q 2525 4250 2034 4250 
z
M 2034 4750 
Q 2819 4750 3233 4129 
Q 3647 3509 3647 2328 
Q 3647 1150 3233 529 
Q 2819 -91 2034 -91 
Q 1250 -91 836 529 
Q 422 1150 422 2328 
Q 422 3509 836 4129 
Q 1250 4750 2034 4750 
z
" transform="scale(0.015625)"/>
       </defs>
       <use xlink:href="#DejaVuSans-2212"/>
       <use xlink:href="#DejaVuSans-33" x="83.789062"/>
       <use xlink:href="#DejaVuSans-30" x="147.412109"/>
      </g>
     </g>
    </g>
    <g id="xtick_2">
     <g id="line2d_2">
      <g>
       <use xlink:href="#m1d5ac77ed3" x="340.0854" y="640.8" style="stroke: #000000; stroke-width: 0.8"/>
      </g>
     </g>
     <g id="text_2">
      <!-- −20 -->
      <g transform="translate(321.091181 661.477188) scale(0.18 -0.18)">
       <defs>
        <path id="DejaVuSans-32" d="M 1228 531 
L 3431 531 
L 3431 0 
L 469 0 
L 469 531 
Q 828 903 1448 1529 
Q 2069 2156 2228 2338 
Q 2531 2678 2651 2914 
Q 2772 3150 2772 3378 
Q 2772 3750 2511 3984 
Q 2250 4219 1831 4219 
Q 1534 4219 1204 4116 
Q 875 4013 500 3803 
L 500 4441 
Q 881 4594 1212 4672 
Q 1544 4750 1819 4750 
Q 2544 4750 2975 4387 
Q 3406 4025 3406 3419 
Q 3406 3131 3298 2873 
Q 3191 2616 2906 2266 
Q 2828 2175 2409 1742 
Q 1991 1309 1228 531 
z
" transform="scale(0.015625)"/>
       </defs>
       <use xlink:href="#DejaVuSans-2212"/>
       <use xlink:href="#DejaVuSans-32" x="83.789062"/>
       <use xlink:href="#DejaVuSans-30" x="147.412109"/>
      </g>
     </g>
    </g>
    <g id="xtick_3">
     <g id="line2d_3">
      <g>
       <use xlink:href="#m1d5ac77ed3" x="484.052618" y="640.8" style="stroke: #000000; stroke-width: 0.8"/>
      </g>
     </g>
     <g id="text_3">
      <!-- −10 -->
      <g transform="translate(465.058399 661.477188) scale(0.18 -0.18)">
       <defs>
        <path id="DejaVuSans-31" d="M 794 531 
L 1825 531 
L 1825 4091 
L 703 3866 
L 703 4441 
L 1819 4666 
L 2450 4666 
L 2450 531 
L 3481 531 
L 3481 0 
L 794 0 
L 794 531 
z
" transform="scale(0.015625)"/>
       </defs>
       <use xlink:href="#DejaVuSans-2212"/>
       <use xlink:href="#DejaVuSans-31" x="83.789062"/>
       <use xlink:href="#DejaVuSans-30" x="147.412109"/>
      </g>
     </g>
    </g>
    <g id="xtick_4">
     <g id="line2d_4">
      <g>
       <use xlink:href="#m1d5ac77ed3" x="628.019836" y="640.8" style="stroke: #000000; stroke-width: 0.8"/>
      </g>
     </g>
     <g id="text_4">
      <!-- 0 -->
      <g transform="translate(622.293586 661.477188) scale(0.18 -0.18)">
       <use xlink:href="#DejaVuSans-30"/>
      </g>
     </g>
    </g>
    <g id="xtick_5">
     <g id="line2d_5">
      <g>
       <use xlink:href="#m1d5ac77ed3" x="771.987054" y="640.8" style="stroke: #000000; stroke-width: 0.8"/>
      </g>
     </g>
     <g id="text_5">
      <!-- 10 -->
      <g transform="translate(760.534554 661.477188) scale(0.18 -0.18)">
       <use xlink:href="#DejaVuSans-31"/>
       <use xlink:href="#DejaVuSans-30" x="63.623047"/>
      </g>
     </g>
    </g>
    <g id="xtick_6">
     <g id="line2d_6">
      <g>
       <use xlink:href="#m1d5ac77ed3" x="915.954272" y="640.8" style="stroke: #000000; stroke-width: 0.8"/>
      </g>
     </g>
     <g id="text_6">
      <!-- 20 -->
      <g transform="translate(904.501772 661.477188) scale(0.18 -0.18)">
       <use xlink:href="#DejaVuSans-32"/>
       <use xlink:href="#DejaVuSans-30" x="63.623047"/>
      </g>
     </g>
    </g>
    <g id="xtick_7">
     <g id="line2d_7">
      <g>
       <use xlink:href="#m1d5ac77ed3" x="1059.92149" y="640.8" style="stroke: #000000; stroke-width: 0.8"/>
      </g>
     </g>
     <g id="text_7">
      <!-- 30 -->
      <g transform="translate(1048.46899 661.477188) scale(0.18 -0.18)">
       <use xlink:href="#DejaVuSans-33"/>
       <use xlink:href="#DejaVuSans-30" x="63.623047"/>
      </g>
     </g>
    </g>
    <g id="text_8">
     <!-- Transcription Factor Abundance -->
     <g transform="translate(469.689063 684.4175) scale(0.2 -0.2)">
      <defs>
       <path id="DejaVuSans-54" d="M -19 4666 
L 3928 4666 
L 3928 4134 
L 2272 4134 
L 2272 0 
L 1638 0 
L 1638 4134 
L -19 4134 
L -19 4666 
z
" transform="scale(0.015625)"/>
       <path id="DejaVuSans-72" d="M 2631 2963 
Q 2534 3019 2420 3045 
Q 2306 3072 2169 3072 
Q 1681 3072 1420 2755 
Q 1159 2438 1159 1844 
L 1159 0 
L 581 0 
L 581 3500 
L 1159 3500 
L 1159 2956 
Q 1341 3275 1631 3429 
Q 1922 3584 2338 3584 
Q 2397 3584 2469 3576 
Q 2541 3569 2628 3553 
L 2631 2963 
z
" transform="scale(0.015625)"/>
       <path id="DejaVuSans-61" d="M 2194 1759 
Q 1497 1759 1228 1600 
Q 959 1441 959 1056 
Q 959 750 1161 570 
Q 1363 391 1709 391 
Q 2188 391 2477 730 
Q 2766 1069 2766 1631 
L 2766 1759 
L 2194 1759 
z
M 3341 1997 
L 3341 0 
L 2766 0 
L 2766 531 
Q 2569 213 2275 61 
Q 1981 -91 1556 -91 
Q 1019 -91 701 211 
Q 384 513 384 1019 
Q 384 1609 779 1909 
Q 1175 2209 1959 2209 
L 2766 2209 
L 2766 2266 
Q 2766 2663 2505 2880 
Q 2244 3097 1772 3097 
Q 1472 3097 1187 3025 
Q 903 2953 641 2809 
L 641 3341 
Q 956 3463 1253 3523 
Q 1550 3584 1831 3584 
Q 2591 3584 2966 3190 
Q 3341 2797 3341 1997 
z
" transform="scale(0.015625)"/>
       <path id="DejaVuSans-6e" d="M 3513 2113 
L 3513 0 
L 2938 0 
L 2938 2094 
Q 2938 2591 2744 2837 
Q 2550 3084 2163 3084 
Q 1697 3084 1428 2787 
Q 1159 2491 1159 1978 
L 1159 0 
L 581 0 
L 581 3500 
L 1159 3500 
L 1159 2956 
Q 1366 3272 1645 3428 
Q 1925 3584 2291 3584 
Q 2894 3584 3203 3211 
Q 3513 2838 3513 2113 
z
" transform="scale(0.015625)"/>
       <path id="DejaVuSans-73" d="M 2834 3397 
L 2834 2853 
Q 2591 2978 2328 3040 
Q 2066 3103 1784 3103 
Q 1356 3103 1142 2972 
Q 928 2841 928 2578 
Q 928 2378 1081 2264 
Q 1234 2150 1697 2047 
L 1894 2003 
Q 2506 1872 2764 1633 
Q 3022 1394 3022 966 
Q 3022 478 2636 193 
Q 2250 -91 1575 -91 
Q 1294 -91 989 -36 
Q 684 19 347 128 
L 347 722 
Q 666 556 975 473 
Q 1284 391 1588 391 
Q 1994 391 2212 530 
Q 2431 669 2431 922 
Q 2431 1156 2273 1281 
Q 2116 1406 1581 1522 
L 1381 1569 
Q 847 1681 609 1914 
Q 372 2147 372 2553 
Q 372 3047 722 3315 
Q 1072 3584 1716 3584 
Q 2034 3584 2315 3537 
Q 2597 3491 2834 3397 
z
" transform="scale(0.015625)"/>
       <path id="DejaVuSans-63" d="M 3122 3366 
L 3122 2828 
Q 2878 2963 2633 3030 
Q 2388 3097 2138 3097 
Q 1578 3097 1268 2742 
Q 959 2388 959 1747 
Q 959 1106 1268 751 
Q 1578 397 2138 397 
Q 2388 397 2633 464 
Q 2878 531 3122 666 
L 3122 134 
Q 2881 22 2623 -34 
Q 2366 -91 2075 -91 
Q 1284 -91 818 406 
Q 353 903 353 1747 
Q 353 2603 823 3093 
Q 1294 3584 2113 3584 
Q 2378 3584 2631 3529 
Q 2884 3475 3122 3366 
z
" transform="scale(0.015625)"/>
       <path id="DejaVuSans-69" d="M 603 3500 
L 1178 3500 
L 1178 0 
L 603 0 
L 603 3500 
z
M 603 4863 
L 1178 4863 
L 1178 4134 
L 603 4134 
L 603 4863 
z
" transform="scale(0.015625)"/>
       <path id="DejaVuSans-70" d="M 1159 525 
L 1159 -1331 
L 581 -1331 
L 581 3500 
L 1159 3500 
L 1159 2969 
Q 1341 3281 1617 3432 
Q 1894 3584 2278 3584 
Q 2916 3584 3314 3078 
Q 3713 2572 3713 1747 
Q 3713 922 3314 415 
Q 2916 -91 2278 -91 
Q 1894 -91 1617 61 
Q 1341 213 1159 525 
z
M 3116 1747 
Q 3116 2381 2855 2742 
Q 2594 3103 2138 3103 
Q 1681 3103 1420 2742 
Q 1159 2381 1159 1747 
Q 1159 1113 1420 752 
Q 1681 391 2138 391 
Q 2594 391 2855 752 
Q 3116 1113 3116 1747 
z
" transform="scale(0.015625)"/>
       <path id="DejaVuSans-74" d="M 1172 4494 
L 1172 3500 
L 2356 3500 
L 2356 3053 
L 1172 3053 
L 1172 1153 
Q 1172 725 1289 603 
Q 1406 481 1766 481 
L 2356 481 
L 2356 0 
L 1766 0 
Q 1100 0 847 248 
Q 594 497 594 1153 
L 594 3053 
L 172 3053 
L 172 3500 
L 594 3500 
L 594 4494 
L 1172 4494 
z
" transform="scale(0.015625)"/>
       <path id="DejaVuSans-6f" d="M 1959 3097 
Q 1497 3097 1228 2736 
Q 959 2375 959 1747 
Q 959 1119 1226 758 
Q 1494 397 1959 397 
Q 2419 397 2687 759 
Q 2956 1122 2956 1747 
Q 2956 2369 2687 2733 
Q 2419 3097 1959 3097 
z
M 1959 3584 
Q 2709 3584 3137 3096 
Q 3566 2609 3566 1747 
Q 3566 888 3137 398 
Q 2709 -91 1959 -91 
Q 1206 -91 779 398 
Q 353 888 353 1747 
Q 353 2609 779 3096 
Q 1206 3584 1959 3584 
z
" transform="scale(0.015625)"/>
       <path id="DejaVuSans-20" transform="scale(0.015625)"/>
       <path id="DejaVuSans-46" d="M 628 4666 
L 3309 4666 
L 3309 4134 
L 1259 4134 
L 1259 2759 
L 3109 2759 
L 3109 2228 
L 1259 2228 
L 1259 0 
L 628 0 
L 628 4666 
z
" transform="scale(0.015625)"/>
       <path id="DejaVuSans-41" d="M 2188 4044 
L 1331 1722 
L 3047 1722 
L 2188 4044 
z
M 1831 4666 
L 2547 4666 
L 4325 0 
L 3669 0 
L 3244 1197 
L 1141 1197 
L 716 0 
L 50 0 
L 1831 4666 
z
" transform="scale(0.015625)"/>
       <path id="DejaVuSans-62" d="M 3116 1747 
Q 3116 2381 2855 2742 
Q 2594 3103 2138 3103 
Q 1681 3103 1420 2742 
Q 1159 2381 1159 1747 
Q 1159 1113 1420 752 
Q 1681 391 2138 391 
Q 2594 391 2855 752 
Q 3116 1113 3116 1747 
z
M 1159 2969 
Q 1341 3281 1617 3432 
Q 1894 3584 2278 3584 
Q 2916 3584 3314 3078 
Q 3713 2572 3713 1747 
Q 3713 922 3314 415 
Q 2916 -91 2278 -91 
Q 1894 -91 1617 61 
Q 1341 213 1159 525 
L 1159 0 
L 581 0 
L 581 4863 
L 1159 4863 
L 1159 2969 
z
" transform="scale(0.015625)"/>
       <path id="DejaVuSans-75" d="M 544 1381 
L 544 3500 
L 1119 3500 
L 1119 1403 
Q 1119 906 1312 657 
Q 1506 409 1894 409 
Q 2359 409 2629 706 
Q 2900 1003 2900 1516 
L 2900 3500 
L 3475 3500 
L 3475 0 
L 2900 0 
L 2900 538 
Q 2691 219 2414 64 
Q 2138 -91 1772 -91 
Q 1169 -91 856 284 
Q 544 659 544 1381 
z
M 1991 3584 
L 1991 3584 
z
" transform="scale(0.015625)"/>
       <path id="DejaVuSans-64" d="M 2906 2969 
L 2906 4863 
L 3481 4863 
L 3481 0 
L 2906 0 
L 2906 525 
Q 2725 213 2448 61 
Q 2172 -91 1784 -91 
Q 1150 -91 751 415 
Q 353 922 353 1747 
Q 353 2572 751 3078 
Q 1150 3584 1784 3584 
Q 2172 3584 2448 3432 
Q 2725 3281 2906 2969 
z
M 947 1747 
Q 947 1113 1208 752 
Q 1469 391 1925 391 
Q 2381 391 2643 752 
Q 2906 1113 2906 1747 
Q 2906 2381 2643 2742 
Q 2381 3103 1925 3103 
Q 1469 3103 1208 2742 
Q 947 2381 947 1747 
z
" transform="scale(0.015625)"/>
       <path id="DejaVuSans-65" d="M 3597 1894 
L 3597 1613 
L 953 1613 
Q 991 1019 1311 708 
Q 1631 397 2203 397 
Q 2534 397 2845 478 
Q 3156 559 3463 722 
L 3463 178 
Q 3153 47 2828 -22 
Q 2503 -91 2169 -91 
Q 1331 -91 842 396 
Q 353 884 353 1716 
Q 353 2575 817 3079 
Q 1281 3584 2069 3584 
Q 2775 3584 3186 3129 
Q 3597 2675 3597 1894 
z
M 3022 2063 
Q 3016 2534 2758 2815 
Q 2500 3097 2075 3097 
Q 1594 3097 1305 2825 
Q 1016 2553 972 2059 
L 3022 2063 
z
" transform="scale(0.015625)"/>
      </defs>
      <use xlink:href="#DejaVuSans-54"/>
      <use xlink:href="#DejaVuSans-72" x="46.333984"/>
      <use xlink:href="#DejaVuSans-61" x="87.447266"/>
      <use xlink:href="#DejaVuSans-6e" x="148.726562"/>
      <use xlink:href="#DejaVuSans-73" x="212.105469"/>
      <use xlink:href="#DejaVuSans-63" x="264.205078"/>
      <use xlink:href="#DejaVuSans-72" x="319.185547"/>
      <use xlink:href="#DejaVuSans-69" x="360.298828"/>
      <use xlink:href="#DejaVuSans-70" x="388.082031"/>
      <use xlink:href="#DejaVuSans-74" x="451.558594"/>
      <use xlink:href="#DejaVuSans-69" x="490.767578"/>
      <use xlink:href="#DejaVuSans-6f" x="518.550781"/>
      <use xlink:href="#DejaVuSans-6e" x="579.732422"/>
      <use xlink:href="#DejaVuSans-20" x="643.111328"/>
      <use xlink:href="#DejaVuSans-46" x="674.898438"/>
      <use xlink:href="#DejaVuSans-61" x="723.292969"/>
      <use xlink:href="#DejaVuSans-63" x="784.572266"/>
      <use xlink:href="#DejaVuSans-74" x="839.552734"/>
      <use xlink:href="#DejaVuSans-6f" x="878.761719"/>
      <use xlink:href="#DejaVuSans-72" x="939.943359"/>
      <use xlink:href="#DejaVuSans-20" x="981.056641"/>
      <use xlink:href="#DejaVuSans-41" x="1012.84375"/>
      <use xlink:href="#DejaVuSans-62" x="1081.251953"/>
      <use xlink:href="#DejaVuSans-75" x="1144.728516"/>
      <use xlink:href="#DejaVuSans-6e" x="1208.107422"/>
      <use xlink:href="#DejaVuSans-64" x="1271.486328"/>
      <use xlink:href="#DejaVuSans-61" x="1334.962891"/>
      <use xlink:href="#DejaVuSans-6e" x="1396.242188"/>
      <use xlink:href="#DejaVuSans-63" x="1459.621094"/>
      <use xlink:href="#DejaVuSans-65" x="1514.601562"/>
     </g>
    </g>
   </g>
   <g id="matplotlib.axis_2">
    <g id="ytick_1">
     <g id="line2d_8">
      <defs>
       <path id="m0bda015d58" d="M 0 0 
L -3.5 0 
" style="stroke: #000000; stroke-width: 0.8"/>
      </defs>
      <g>
       <use xlink:href="#m0bda015d58" x="153" y="615.6" style="stroke: #000000; stroke-width: 0.8"/>
      </g>
     </g>
     <g id="text_9">
      <!-- 0.0 -->
      <g transform="translate(117.374375 622.438594) scale(0.18 -0.18)">
       <defs>
        <path id="DejaVuSans-2e" d="M 684 794 
L 1344 794 
L 1344 0 
L 684 0 
L 684 794 
z
" transform="scale(0.015625)"/>
       </defs>
       <use xlink:href="#DejaVuSans-30"/>
       <use xlink:href="#DejaVuSans-2e" x="63.623047"/>
       <use xlink:href="#DejaVuSans-30" x="95.410156"/>
      </g>
     </g>
    </g>
    <g id="ytick_2">
     <g id="line2d_9">
      <g>
       <use xlink:href="#m0bda015d58" x="153" y="514.8" style="stroke: #000000; stroke-width: 0.8"/>
      </g>
     </g>
     <g id="text_10">
      <!-- 0.2 -->
      <g transform="translate(117.374375 521.638594) scale(0.18 -0.18)">
       <use xlink:href="#DejaVuSans-30"/>
       <use xlink:href="#DejaVuSans-2e" x="63.623047"/>
       <use xlink:href="#DejaVuSans-32" x="95.410156"/>
      </g>
     </g>
    </g>
    <g id="ytick_3">
     <g id="line2d_10">
      <g>
       <use xlink:href="#m0bda015d58" x="153" y="414" style="stroke: #000000; stroke-width: 0.8"/>
      </g>
     </g>
     <g id="text_11">
      <!-- 0.4 -->
      <g transform="translate(117.374375 420.838594) scale(0.18 -0.18)">
       <defs>
        <path id="DejaVuSans-34" d="M 2419 4116 
L 825 1625 
L 2419 1625 
L 2419 4116 
z
M 2253 4666 
L 3047 4666 
L 3047 1625 
L 3713 1625 
L 3713 1100 
L 3047 1100 
L 3047 0 
L 2419 0 
L 2419 1100 
L 313 1100 
L 313 1709 
L 2253 4666 
z
" transform="scale(0.015625)"/>
       </defs>
       <use xlink:href="#DejaVuSans-30"/>
       <use xlink:href="#DejaVuSans-2e" x="63.623047"/>
       <use xlink:href="#DejaVuSans-34" x="95.410156"/>
      </g>
     </g>
    </g>
    <g id="ytick_4">
     <g id="line2d_11">
      <g>
       <use xlink:href="#m0bda015d58" x="153" y="313.2" style="stroke: #000000; stroke-width: 0.8"/>
      </g>
     </g>
     <g id="text_12">
      <!-- 0.6 -->
      <g transform="translate(117.374375 320.038594) scale(0.18 -0.18)">
       <defs>
        <path id="DejaVuSans-36" d="M 2113 2584 
Q 1688 2584 1439 2293 
Q 1191 2003 1191 1497 
Q 1191 994 1439 701 
Q 1688 409 2113 409 
Q 2538 409 2786 701 
Q 3034 994 3034 1497 
Q 3034 2003 2786 2293 
Q 2538 2584 2113 2584 
z
M 3366 4563 
L 3366 3988 
Q 3128 4100 2886 4159 
Q 2644 4219 2406 4219 
Q 1781 4219 1451 3797 
Q 1122 3375 1075 2522 
Q 1259 2794 1537 2939 
Q 1816 3084 2150 3084 
Q 2853 3084 3261 2657 
Q 3669 2231 3669 1497 
Q 3669 778 3244 343 
Q 2819 -91 2113 -91 
Q 1303 -91 875 529 
Q 447 1150 447 2328 
Q 447 3434 972 4092 
Q 1497 4750 2381 4750 
Q 2619 4750 2861 4703 
Q 3103 4656 3366 4563 
z
" transform="scale(0.015625)"/>
       </defs>
       <use xlink:href="#DejaVuSans-30"/>
       <use xlink:href="#DejaVuSans-2e" x="63.623047"/>
       <use xlink:href="#DejaVuSans-36" x="95.410156"/>
      </g>
     </g>
    </g>
    <g id="ytick_5">
     <g id="line2d_12">
      <g>
       <use xlink:href="#m0bda015d58" x="153" y="212.4" style="stroke: #000000; stroke-width: 0.8"/>
      </g>
     </g>
     <g id="text_13">
      <!-- 0.8 -->
      <g transform="translate(117.374375 219.238594) scale(0.18 -0.18)">
       <defs>
        <path id="DejaVuSans-38" d="M 2034 2216 
Q 1584 2216 1326 1975 
Q 1069 1734 1069 1313 
Q 1069 891 1326 650 
Q 1584 409 2034 409 
Q 2484 409 2743 651 
Q 3003 894 3003 1313 
Q 3003 1734 2745 1975 
Q 2488 2216 2034 2216 
z
M 1403 2484 
Q 997 2584 770 2862 
Q 544 3141 544 3541 
Q 544 4100 942 4425 
Q 1341 4750 2034 4750 
Q 2731 4750 3128 4425 
Q 3525 4100 3525 3541 
Q 3525 3141 3298 2862 
Q 3072 2584 2669 2484 
Q 3125 2378 3379 2068 
Q 3634 1759 3634 1313 
Q 3634 634 3220 271 
Q 2806 -91 2034 -91 
Q 1263 -91 848 271 
Q 434 634 434 1313 
Q 434 1759 690 2068 
Q 947 2378 1403 2484 
z
M 1172 3481 
Q 1172 3119 1398 2916 
Q 1625 2713 2034 2713 
Q 2441 2713 2670 2916 
Q 2900 3119 2900 3481 
Q 2900 3844 2670 4047 
Q 2441 4250 2034 4250 
Q 1625 4250 1398 4047 
Q 1172 3844 1172 3481 
z
" transform="scale(0.015625)"/>
       </defs>
       <use xlink:href="#DejaVuSans-30"/>
       <use xlink:href="#DejaVuSans-2e" x="63.623047"/>
       <use xlink:href="#DejaVuSans-38" x="95.410156"/>
      </g>
     </g>
    </g>
    <g id="ytick_6">
     <g id="line2d_13">
      <g>
       <use xlink:href="#m0bda015d58" x="153" y="111.6" style="stroke: #000000; stroke-width: 0.8"/>
      </g>
     </g>
     <g id="text_14">
      <!-- 1.0 -->
      <g transform="translate(117.374375 118.438594) scale(0.18 -0.18)">
       <use xlink:href="#DejaVuSans-31"/>
       <use xlink:href="#DejaVuSans-2e" x="63.623047"/>
       <use xlink:href="#DejaVuSans-30" x="95.410156"/>
      </g>
     </g>
    </g>
    <g id="text_15">
     <!-- Regulation Size -->
     <g transform="translate(109.215 440.704687) rotate(-90) scale(0.2 -0.2)">
      <defs>
       <path id="DejaVuSans-52" d="M 2841 2188 
Q 3044 2119 3236 1894 
Q 3428 1669 3622 1275 
L 4263 0 
L 3584 0 
L 2988 1197 
Q 2756 1666 2539 1819 
Q 2322 1972 1947 1972 
L 1259 1972 
L 1259 0 
L 628 0 
L 628 4666 
L 2053 4666 
Q 2853 4666 3247 4331 
Q 3641 3997 3641 3322 
Q 3641 2881 3436 2590 
Q 3231 2300 2841 2188 
z
M 1259 4147 
L 1259 2491 
L 2053 2491 
Q 2509 2491 2742 2702 
Q 2975 2913 2975 3322 
Q 2975 3731 2742 3939 
Q 2509 4147 2053 4147 
L 1259 4147 
z
" transform="scale(0.015625)"/>
       <path id="DejaVuSans-67" d="M 2906 1791 
Q 2906 2416 2648 2759 
Q 2391 3103 1925 3103 
Q 1463 3103 1205 2759 
Q 947 2416 947 1791 
Q 947 1169 1205 825 
Q 1463 481 1925 481 
Q 2391 481 2648 825 
Q 2906 1169 2906 1791 
z
M 3481 434 
Q 3481 -459 3084 -895 
Q 2688 -1331 1869 -1331 
Q 1566 -1331 1297 -1286 
Q 1028 -1241 775 -1147 
L 775 -588 
Q 1028 -725 1275 -790 
Q 1522 -856 1778 -856 
Q 2344 -856 2625 -561 
Q 2906 -266 2906 331 
L 2906 616 
Q 2728 306 2450 153 
Q 2172 0 1784 0 
Q 1141 0 747 490 
Q 353 981 353 1791 
Q 353 2603 747 3093 
Q 1141 3584 1784 3584 
Q 2172 3584 2450 3431 
Q 2728 3278 2906 2969 
L 2906 3500 
L 3481 3500 
L 3481 434 
z
" transform="scale(0.015625)"/>
       <path id="DejaVuSans-6c" d="M 603 4863 
L 1178 4863 
L 1178 0 
L 603 0 
L 603 4863 
z
" transform="scale(0.015625)"/>
       <path id="DejaVuSans-53" d="M 3425 4513 
L 3425 3897 
Q 3066 4069 2747 4153 
Q 2428 4238 2131 4238 
Q 1616 4238 1336 4038 
Q 1056 3838 1056 3469 
Q 1056 3159 1242 3001 
Q 1428 2844 1947 2747 
L 2328 2669 
Q 3034 2534 3370 2195 
Q 3706 1856 3706 1288 
Q 3706 609 3251 259 
Q 2797 -91 1919 -91 
Q 1588 -91 1214 -16 
Q 841 59 441 206 
L 441 856 
Q 825 641 1194 531 
Q 1563 422 1919 422 
Q 2459 422 2753 634 
Q 3047 847 3047 1241 
Q 3047 1584 2836 1778 
Q 2625 1972 2144 2069 
L 1759 2144 
Q 1053 2284 737 2584 
Q 422 2884 422 3419 
Q 422 4038 858 4394 
Q 1294 4750 2059 4750 
Q 2388 4750 2728 4690 
Q 3069 4631 3425 4513 
z
" transform="scale(0.015625)"/>
       <path id="DejaVuSans-7a" d="M 353 3500 
L 3084 3500 
L 3084 2975 
L 922 459 
L 3084 459 
L 3084 0 
L 275 0 
L 275 525 
L 2438 3041 
L 353 3041 
L 353 3500 
z
" transform="scale(0.015625)"/>
      </defs>
      <use xlink:href="#DejaVuSans-52"/>
      <use xlink:href="#DejaVuSans-65" x="64.982422"/>
      <use xlink:href="#DejaVuSans-67" x="126.505859"/>
      <use xlink:href="#DejaVuSans-75" x="189.982422"/>
      <use xlink:href="#DejaVuSans-6c" x="253.361328"/>
      <use xlink:href="#DejaVuSans-61" x="281.144531"/>
      <use xlink:href="#DejaVuSans-74" x="342.423828"/>
      <use xlink:href="#DejaVuSans-69" x="381.632812"/>
      <use xlink:href="#DejaVuSans-6f" x="409.416016"/>
      <use xlink:href="#DejaVuSans-6e" x="470.597656"/>
      <use xlink:href="#DejaVuSans-20" x="533.976562"/>
      <use xlink:href="#DejaVuSans-53" x="565.763672"/>
      <use xlink:href="#DejaVuSans-69" x="629.240234"/>
      <use xlink:href="#DejaVuSans-7a" x="657.023438"/>
      <use xlink:href="#DejaVuSans-65" x="709.513672"/>
     </g>
    </g>
   </g>
   <g id="line2d_14">
    <path d="M 196.118182 469.918549 
L 230.670314 462.349665 
L 266.662119 454.235344 
L 304.093595 445.561406 
L 342.964744 436.318332 
L 383.275565 426.502463 
L 426.465731 415.755558 
L 473.974913 403.702242 
L 528.682456 389.589265 
L 603.545409 370.024608 
L 740.314266 334.249803 
L 796.461481 319.822532 
L 843.970663 307.837826 
L 887.160829 297.166541 
L 927.47165 287.43162 
L 966.342799 278.275117 
L 1003.774275 269.691534 
L 1039.76608 261.669716 
L 1058.481818 257.592364 
L 1058.481818 257.592364 
" clip-path="url(#p3c29bd57a8)" style="fill: none; stroke: #1f77b4; stroke-width: 3; stroke-linecap: square"/>
   </g>
   <g id="line2d_15">
    <path d="M 196.118182 523.657536 
L 216.273592 518.278263 
L 236.429003 512.662888 
L 256.584413 506.810183 
L 276.739824 500.720029 
L 296.895234 494.393502 
L 317.050645 487.832968 
L 337.206056 481.042155 
L 357.361466 474.026227 
L 378.956549 466.266936 
L 400.551632 458.266991 
L 422.146714 450.038537 
L 445.181469 441.025655 
L 469.655896 431.204338 
L 495.569995 420.559145 
L 524.363439 408.476379 
L 556.036227 394.936956 
L 596.347048 377.446041 
L 710.08115 327.931108 
L 741.753938 314.467174 
L 769.10771 303.066358 
L 795.021809 292.502027 
L 819.496236 282.767133 
L 842.530991 273.843522 
L 864.126074 265.704885 
L 885.721156 257.799857 
L 907.316239 250.139773 
L 927.47165 243.219597 
L 947.62706 236.526928 
L 967.782471 230.066307 
L 987.937881 223.84087 
L 1008.093292 217.85242 
L 1028.248702 212.101509 
L 1048.404113 206.587532 
L 1058.481818 203.91891 
L 1058.481818 203.91891 
" clip-path="url(#p3c29bd57a8)" style="fill: none; stroke: #ff7f0e; stroke-width: 3; stroke-linecap: square"/>
   </g>
   <g id="line2d_16">
    <path d="M 196.118182 591.69736 
L 210.514904 589.314604 
L 224.911625 586.708615 
L 239.308347 583.861429 
L 252.265397 581.077208 
L 265.222447 578.068156 
L 278.179496 574.819613 
L 289.696874 571.718851 
L 301.214251 568.406341 
L 312.731628 564.871345 
L 324.249006 561.103152 
L 335.766383 557.091183 
L 347.283761 552.825107 
L 358.801138 548.294972 
L 368.878844 544.107063 
L 378.956549 539.70386 
L 389.034254 535.079954 
L 399.111959 530.230516 
L 409.189665 525.151394 
L 419.26737 519.839211 
L 429.345075 514.291464 
L 439.42278 508.506631 
L 449.500486 502.484263 
L 459.578191 496.225088 
L 469.655896 489.731093 
L 481.173274 482.02619 
L 492.690651 474.026227 
L 504.208029 465.74097 
L 515.725406 457.182777 
L 527.242783 448.366637 
L 540.199833 438.162164 
L 553.156883 427.682474 
L 567.553604 415.755558 
L 583.389998 402.350172 
L 603.545409 384.968562 
L 636.657869 356.042267 
L 664.011641 332.263044 
L 682.727379 316.287956 
L 698.563773 303.066358 
L 712.960495 291.343967 
L 725.917544 281.075697 
L 738.874594 271.10547 
L 750.391971 262.51416 
L 761.909349 254.194056 
L 773.426726 246.157845 
L 784.944104 238.415612 
L 796.461481 230.974912 
L 806.539187 224.715737 
L 816.616892 218.693369 
L 826.694597 212.908536 
L 836.772302 207.360789 
L 846.850008 202.048606 
L 856.927713 196.969484 
L 867.005418 192.120046 
L 877.083123 187.49614 
L 887.160829 183.092937 
L 897.238534 178.905028 
L 908.755911 174.374893 
L 920.273289 170.108817 
L 931.790666 166.096848 
L 943.308044 162.328655 
L 954.825421 158.793659 
L 966.342799 155.481149 
L 977.860176 152.380387 
L 990.817226 149.131844 
L 1003.774275 146.122792 
L 1016.731325 143.338571 
L 1029.688375 140.764945 
L 1044.085096 138.13566 
L 1058.481818 135.731364 
L 1058.481818 135.731364 
" clip-path="url(#p3c29bd57a8)" style="fill: none; stroke: #2ca02c; stroke-width: 3; stroke-linecap: square"/>
   </g>
   <g id="line2d_17">
    <path d="M 196.118182 615.537809 
L 265.222447 615.337616 
L 302.653923 615.027967 
L 330.007695 614.589375 
L 350.163105 614.063476 
L 367.439171 613.40056 
L 381.835893 612.635593 
L 394.792943 611.723799 
L 406.31032 610.682641 
L 416.388025 609.547361 
L 425.026059 608.370797 
L 433.664092 606.969487 
L 440.862453 605.600486 
L 448.060813 604.019406 
L 455.259174 602.195115 
L 461.017863 600.537113 
L 466.776552 598.681111 
L 472.535241 596.605303 
L 478.293929 594.285955 
L 484.052618 591.69736 
L 489.811307 588.811827 
L 494.130323 586.435055 
L 498.44934 583.861429 
L 502.768356 581.077208 
L 507.087373 578.068156 
L 511.406389 574.819613 
L 515.725406 571.316587 
L 520.044423 567.54387 
L 524.363439 563.486172 
L 528.682456 559.128293 
L 533.001472 554.455306 
L 537.320489 549.452787 
L 541.639505 544.107063 
L 545.958522 538.405487 
L 550.277538 532.336745 
L 554.596555 525.891182 
L 558.915571 519.061144 
L 563.234588 511.841333 
L 567.553604 504.229158 
L 571.872621 496.225088 
L 576.191638 487.832968 
L 580.510654 479.060313 
L 586.269343 466.791832 
L 592.028032 453.906064 
L 597.78672 440.454689 
L 603.545409 426.502463 
L 610.74377 408.476379 
L 619.381803 386.218962 
L 646.735574 315.07352 
L 653.933935 297.166541 
L 659.692624 283.332764 
L 665.451313 270.017223 
L 671.210002 257.281451 
L 676.96869 245.17381 
L 681.287707 236.526928 
L 685.606723 228.263509 
L 689.92574 220.389817 
L 694.244756 212.908536 
L 698.563773 205.819077 
L 702.882789 199.11791 
L 707.201806 192.798911 
L 711.520823 186.853719 
L 715.839839 181.27209 
L 720.158856 176.042229 
L 724.477872 171.151117 
L 728.796889 166.584798 
L 733.115905 162.328655 
L 737.434922 158.367648 
L 741.753938 154.686526 
L 746.072955 151.27001 
L 750.391971 148.102949 
L 754.710988 145.17045 
L 759.030005 142.457986 
L 763.349021 139.951479 
L 769.10771 136.906482 
L 774.866399 134.173002 
L 780.625087 131.722368 
L 786.383776 129.527879 
L 792.142465 127.564819 
L 797.901153 125.810425 
L 805.099514 123.879252 
L 812.297875 122.204839 
L 819.496236 120.7545 
L 828.134269 119.269429 
L 836.772302 118.022144 
L 846.850008 116.818284 
L 856.927713 115.83817 
L 868.44509 114.939855 
L 881.40214 114.153581 
L 897.238534 113.438448 
L 914.5146 112.884058 
L 936.109683 112.419508 
L 963.463454 112.06378 
L 1000.894931 111.812706 
L 1058.481818 111.664085 
L 1058.481818 111.664085 
" clip-path="url(#p3c29bd57a8)" style="fill: none; stroke: #d62728; stroke-width: 3; stroke-linecap: square"/>
   </g>
   <g id="line2d_18">
    <path d="M 196.118182 615.599846 
L 384.715238 615.492217 
L 417.827698 615.259758 
L 437.983108 614.915306 
L 452.37983 614.472124 
L 463.897207 613.919257 
L 473.974913 613.218241 
L 482.612946 612.390268 
L 489.811307 611.486064 
L 497.009668 610.32982 
L 502.768356 609.177856 
L 508.527045 607.778043 
L 512.846062 606.53495 
L 517.165078 605.098482 
L 521.484095 603.439981 
L 525.803111 601.527023 
L 530.122128 599.323086 
L 534.441144 596.787249 
L 537.320489 594.889996 
L 540.199833 592.810393 
L 543.079177 590.532798 
L 545.958522 588.040616 
L 548.837866 585.316328 
L 551.717211 582.341539 
L 554.596555 579.097051 
L 557.475899 575.562971 
L 560.355244 571.718851 
L 563.234588 567.54387 
L 566.113932 563.017064 
L 568.993277 558.1176 
L 571.872621 552.825107 
L 574.751965 547.12006 
L 577.63131 540.984212 
L 580.510654 534.401089 
L 583.389998 527.356521 
L 586.269343 519.839211 
L 589.148687 511.841333 
L 592.028032 503.35913 
L 594.907376 494.393502 
L 599.226392 480.053524 
L 603.545409 464.68584 
L 607.864426 448.366637 
L 612.183442 431.204338 
L 617.942131 407.25526 
L 625.140492 376.18951 
L 638.097541 319.94474 
L 643.85623 295.995662 
L 648.175247 278.833363 
L 652.494263 262.51416 
L 656.81328 247.146476 
L 661.132296 232.806498 
L 665.451313 219.539169 
L 668.330657 211.29932 
L 671.210002 203.542464 
L 674.089346 196.262734 
L 676.96869 189.450494 
L 679.848035 183.092937 
L 682.727379 177.174671 
L 685.606723 171.678273 
L 688.486068 166.584798 
L 691.365412 161.874247 
L 694.244756 157.525972 
L 697.124101 153.519039 
L 700.003445 149.832523 
L 702.882789 146.445764 
L 705.762134 143.338571 
L 708.641478 140.491385 
L 711.520823 137.885396 
L 714.400167 135.50264 
L 717.279511 133.326056 
L 721.598528 130.412751 
L 725.917544 127.876914 
L 730.236561 125.672977 
L 734.555577 123.760019 
L 738.874594 122.101518 
L 743.193611 120.66505 
L 747.512627 119.421957 
L 753.271316 118.022144 
L 759.030005 116.87018 
L 764.788693 115.923053 
L 771.987054 114.973197 
L 780.625087 114.103268 
L 789.26312 113.456857 
L 800.780498 112.846202 
L 813.737547 112.395326 
L 831.013614 112.036795 
L 854.048368 111.796358 
L 891.479845 111.653529 
L 980.73952 111.602412 
L 1058.481818 111.600162 
L 1058.481818 111.600162 
" clip-path="url(#p3c29bd57a8)" style="fill: none; stroke: #9467bd; stroke-width: 3; stroke-linecap: square"/>
   </g>
   <g id="line2d_19">
    <path d="M 196.118182 615.6 
L 505.647701 615.497473 
L 522.923767 615.259758 
L 533.001472 614.915306 
L 540.199833 614.472124 
L 545.958522 613.919257 
L 550.277538 613.333878 
L 554.596555 612.54586 
L 558.915571 611.486064 
L 561.794916 610.584292 
L 564.67426 609.487269 
L 567.553604 608.153888 
L 570.432949 606.53495 
L 573.312293 604.571839 
L 576.191638 602.195115 
L 579.070982 599.323086 
L 581.950326 595.860476 
L 583.389998 593.873944 
L 584.829671 591.69736 
L 586.269343 589.314604 
L 587.709015 586.708615 
L 589.148687 583.861429 
L 590.588359 580.754236 
L 592.028032 577.367477 
L 593.467704 573.680961 
L 594.907376 569.674028 
L 596.347048 565.325753 
L 597.78672 560.615202 
L 600.666065 550.025329 
L 603.545409 537.749506 
L 606.424753 523.657536 
L 609.304098 507.660831 
L 612.183442 489.731093 
L 615.062786 469.918549 
L 617.942131 448.366637 
L 620.821475 425.319503 
L 625.140492 388.716335 
L 635.218197 301.880497 
L 638.097541 278.833363 
L 640.976886 257.281451 
L 643.85623 237.468907 
L 646.735574 219.539169 
L 649.614919 203.542464 
L 652.494263 189.450494 
L 655.373608 177.174671 
L 658.252952 166.584798 
L 661.132296 157.525972 
L 664.011641 149.832523 
L 666.890985 143.338571 
L 669.770329 137.885396 
L 672.649674 133.326056 
L 675.529018 129.527879 
L 678.408362 126.373364 
L 681.287707 123.760019 
L 684.167051 121.599514 
L 687.046396 119.81646 
L 689.92574 118.347007 
L 692.805084 117.137419 
L 695.684429 116.142703 
L 698.563773 115.325337 
L 702.882789 114.365095 
L 707.201806 113.651349 
L 712.960495 112.976908 
L 718.719183 112.523801 
L 727.357217 112.107412 
L 738.874594 111.828122 
L 756.15066 111.668731 
L 793.582137 111.605106 
L 1058.481818 111.6 
L 1058.481818 111.6 
" clip-path="url(#p3c29bd57a8)" style="fill: none; stroke: #8c564b; stroke-width: 3; stroke-linecap: square"/>
   </g>
   <g id="patch_3">
    <path d="M 153 640.8 
L 153 86.4 
" style="fill: none; stroke: #000000; stroke-width: 0.8; stroke-linejoin: miter; stroke-linecap: square"/>
   </g>
   <g id="patch_4">
    <path d="M 1101.6 640.8 
L 1101.6 86.4 
" style="fill: none; stroke: #000000; stroke-width: 0.8; stroke-linejoin: miter; stroke-linecap: square"/>
   </g>
   <g id="patch_5">
    <path d="M 153 640.8 
L 1101.6 640.8 
" style="fill: none; stroke: #000000; stroke-width: 0.8; stroke-linejoin: miter; stroke-linecap: square"/>
   </g>
   <g id="patch_6">
    <path d="M 153 86.4 
L 1101.6 86.4 
" style="fill: none; stroke: #000000; stroke-width: 0.8; stroke-linejoin: miter; stroke-linecap: square"/>
   </g>
   <g id="text_16">
    <!-- Regulation Magnitudes -->
    <g transform="translate(489.58125 80.4) scale(0.24 -0.24)">
     <defs>
      <path id="DejaVuSans-4d" d="M 628 4666 
L 1569 4666 
L 2759 1491 
L 3956 4666 
L 4897 4666 
L 4897 0 
L 4281 0 
L 4281 4097 
L 3078 897 
L 2444 897 
L 1241 4097 
L 1241 0 
L 628 0 
L 628 4666 
z
" transform="scale(0.015625)"/>
     </defs>
     <use xlink:href="#DejaVuSans-52"/>
     <use xlink:href="#DejaVuSans-65" x="64.982422"/>
     <use xlink:href="#DejaVuSans-67" x="126.505859"/>
     <use xlink:href="#DejaVuSans-75" x="189.982422"/>
     <use xlink:href="#DejaVuSans-6c" x="253.361328"/>
     <use xlink:href="#DejaVuSans-61" x="281.144531"/>
     <use xlink:href="#DejaVuSans-74" x="342.423828"/>
     <use xlink:href="#DejaVuSans-69" x="381.632812"/>
     <use xlink:href="#DejaVuSans-6f" x="409.416016"/>
     <use xlink:href="#DejaVuSans-6e" x="470.597656"/>
     <use xlink:href="#DejaVuSans-20" x="533.976562"/>
     <use xlink:href="#DejaVuSans-4d" x="565.763672"/>
     <use xlink:href="#DejaVuSans-61" x="652.042969"/>
     <use xlink:href="#DejaVuSans-67" x="713.322266"/>
     <use xlink:href="#DejaVuSans-6e" x="776.798828"/>
     <use xlink:href="#DejaVuSans-69" x="840.177734"/>
     <use xlink:href="#DejaVuSans-74" x="867.960938"/>
     <use xlink:href="#DejaVuSans-75" x="907.169922"/>
     <use xlink:href="#DejaVuSans-64" x="970.548828"/>
     <use xlink:href="#DejaVuSans-65" x="1034.025391"/>
     <use xlink:href="#DejaVuSans-73" x="1095.548828"/>
    </g>
   </g>
   <g id="legend_1">
    <g id="patch_7">
     <path d="M 167 278.5375 
L 315.5 278.5375 
Q 319.5 278.5375 319.5 274.5375 
L 319.5 100.4 
Q 319.5 96.4 315.5 96.4 
L 167 96.4 
Q 163 96.4 163 100.4 
L 163 274.5375 
Q 163 278.5375 167 278.5375 
z
" style="fill: #ffffff; opacity: 0.8; stroke: #cccccc; stroke-linejoin: miter"/>
    </g>
    <g id="line2d_20">
     <path d="M 171 112.596875 
L 191 112.596875 
L 211 112.596875 
" style="fill: none; stroke: #1f77b4; stroke-width: 3; stroke-linecap: square"/>
    </g>
    <g id="text_17">
     <!-- z = 0.03 -->
     <g transform="translate(227 119.596875) scale(0.2 -0.2)">
      <defs>
       <path id="DejaVuSans-3d" d="M 678 2906 
L 4684 2906 
L 4684 2381 
L 678 2381 
L 678 2906 
z
M 678 1631 
L 4684 1631 
L 4684 1100 
L 678 1100 
L 678 1631 
z
" transform="scale(0.015625)"/>
      </defs>
      <use xlink:href="#DejaVuSans-7a"/>
      <use xlink:href="#DejaVuSans-20" x="52.490234"/>
      <use xlink:href="#DejaVuSans-3d" x="84.277344"/>
      <use xlink:href="#DejaVuSans-20" x="168.066406"/>
      <use xlink:href="#DejaVuSans-30" x="199.853516"/>
      <use xlink:href="#DejaVuSans-2e" x="263.476562"/>
      <use xlink:href="#DejaVuSans-30" x="295.263672"/>
      <use xlink:href="#DejaVuSans-33" x="358.886719"/>
     </g>
    </g>
    <g id="line2d_21">
     <path d="M 171 141.953125 
L 191 141.953125 
L 211 141.953125 
" style="fill: none; stroke: #ff7f0e; stroke-width: 3; stroke-linecap: square"/>
    </g>
    <g id="text_18">
     <!-- z = 0.05 -->
     <g transform="translate(227 148.953125) scale(0.2 -0.2)">
      <defs>
       <path id="DejaVuSans-35" d="M 691 4666 
L 3169 4666 
L 3169 4134 
L 1269 4134 
L 1269 2991 
Q 1406 3038 1543 3061 
Q 1681 3084 1819 3084 
Q 2600 3084 3056 2656 
Q 3513 2228 3513 1497 
Q 3513 744 3044 326 
Q 2575 -91 1722 -91 
Q 1428 -91 1123 -41 
Q 819 9 494 109 
L 494 744 
Q 775 591 1075 516 
Q 1375 441 1709 441 
Q 2250 441 2565 725 
Q 2881 1009 2881 1497 
Q 2881 1984 2565 2268 
Q 2250 2553 1709 2553 
Q 1456 2553 1204 2497 
Q 953 2441 691 2322 
L 691 4666 
z
" transform="scale(0.015625)"/>
      </defs>
      <use xlink:href="#DejaVuSans-7a"/>
      <use xlink:href="#DejaVuSans-20" x="52.490234"/>
      <use xlink:href="#DejaVuSans-3d" x="84.277344"/>
      <use xlink:href="#DejaVuSans-20" x="168.066406"/>
      <use xlink:href="#DejaVuSans-30" x="199.853516"/>
      <use xlink:href="#DejaVuSans-2e" x="263.476562"/>
      <use xlink:href="#DejaVuSans-30" x="295.263672"/>
      <use xlink:href="#DejaVuSans-35" x="358.886719"/>
     </g>
    </g>
    <g id="line2d_22">
     <path d="M 171 171.309375 
L 191 171.309375 
L 211 171.309375 
" style="fill: none; stroke: #2ca02c; stroke-width: 3; stroke-linecap: square"/>
    </g>
    <g id="text_19">
     <!-- z = 0.1 -->
     <g transform="translate(227 178.309375) scale(0.2 -0.2)">
      <use xlink:href="#DejaVuSans-7a"/>
      <use xlink:href="#DejaVuSans-20" x="52.490234"/>
      <use xlink:href="#DejaVuSans-3d" x="84.277344"/>
      <use xlink:href="#DejaVuSans-20" x="168.066406"/>
      <use xlink:href="#DejaVuSans-30" x="199.853516"/>
      <use xlink:href="#DejaVuSans-2e" x="263.476562"/>
      <use xlink:href="#DejaVuSans-31" x="295.263672"/>
     </g>
    </g>
    <g id="line2d_23">
     <path d="M 171 200.665625 
L 191 200.665625 
L 211 200.665625 
" style="fill: none; stroke: #d62728; stroke-width: 3; stroke-linecap: square"/>
    </g>
    <g id="text_20">
     <!-- z = 0.3 -->
     <g transform="translate(227 207.665625) scale(0.2 -0.2)">
      <use xlink:href="#DejaVuSans-7a"/>
      <use xlink:href="#DejaVuSans-20" x="52.490234"/>
      <use xlink:href="#DejaVuSans-3d" x="84.277344"/>
      <use xlink:href="#DejaVuSans-20" x="168.066406"/>
      <use xlink:href="#DejaVuSans-30" x="199.853516"/>
      <use xlink:href="#DejaVuSans-2e" x="263.476562"/>
      <use xlink:href="#DejaVuSans-33" x="295.263672"/>
     </g>
    </g>
    <g id="line2d_24">
     <path d="M 171 230.021875 
L 191 230.021875 
L 211 230.021875 
" style="fill: none; stroke: #9467bd; stroke-width: 3; stroke-linecap: square"/>
    </g>
    <g id="text_21">
     <!-- z = 0.5 -->
     <g transform="translate(227 237.021875) scale(0.2 -0.2)">
      <use xlink:href="#DejaVuSans-7a"/>
      <use xlink:href="#DejaVuSans-20" x="52.490234"/>
      <use xlink:href="#DejaVuSans-3d" x="84.277344"/>
      <use xlink:href="#DejaVuSans-20" x="168.066406"/>
      <use xlink:href="#DejaVuSans-30" x="199.853516"/>
      <use xlink:href="#DejaVuSans-2e" x="263.476562"/>
      <use xlink:href="#DejaVuSans-35" x="295.263672"/>
     </g>
    </g>
    <g id="line2d_25">
     <path d="M 171 259.378125 
L 191 259.378125 
L 211 259.378125 
" style="fill: none; stroke: #8c564b; stroke-width: 3; stroke-linecap: square"/>
    </g>
    <g id="text_22">
     <!-- z = 1 -->
     <g transform="translate(227 266.378125) scale(0.2 -0.2)">
      <use xlink:href="#DejaVuSans-7a"/>
      <use xlink:href="#DejaVuSans-20" x="52.490234"/>
      <use xlink:href="#DejaVuSans-3d" x="84.277344"/>
      <use xlink:href="#DejaVuSans-20" x="168.066406"/>
      <use xlink:href="#DejaVuSans-31" x="199.853516"/>
     </g>
    </g>
   </g>
  </g>
 </g>
 <defs>
  <clipPath id="p3c29bd57a8">
   <rect x="153" y="86.4" width="948.6" height="554.4"/>
  </clipPath>
 </defs>
</svg>
